<svg width="281" height="78" viewBox="0 0 281 78" fill="none" xmlns="http://www.w3.org/2000/svg">
<g clip-path="url(#clip0_4095_663)">
<path d="M0 21.1471V56.4647C0 57.9919 0.822338 59.4082 2.15296 60.1718L31.5588 77.0362C32.8935 77.7998 34.5341 77.7998 35.8688 77.0362L65.2747 60.1718C66.6094 59.4082 67.4276 57.996 67.4276 56.4647V21.1471C67.4276 19.6199 66.6053 18.2036 65.2747 17.4401L35.8688 0.575614C34.5341 -0.187965 32.8935 -0.187965 31.5588 0.575614L2.15296 17.4401C0.818206 18.2036 0 19.6158 0 21.1471Z" fill="white"/>
<path d="M49.0713 42.5755V30.2762C49.0713 29.4674 48.6167 28.7285 47.8936 28.359C43.6042 26.1709 38.881 23.757 34.6081 21.573C33.9841 21.2569 33.2486 21.2569 32.6246 21.573C28.3517 23.757 23.6243 26.1709 19.3391 28.359C18.6159 28.7285 18.1614 29.4674 18.1614 30.2762V33.7164V40.3998C18.1614 40.4654 18.1986 40.5229 18.2564 40.5516C18.306 40.5763 18.3638 40.5763 18.4134 40.5516L23.1656 38.1254C23.8888 37.756 24.3434 37.017 24.3434 36.2083V32.7352C24.3434 32.6695 24.3764 32.6121 24.4343 32.5833C27.1162 31.2122 30.8559 29.3032 33.542 27.9321C33.5916 27.9074 33.6453 27.9074 33.6949 27.9321C36.3768 29.3032 40.1166 31.2122 42.7984 32.5833C42.8562 32.6121 42.8893 32.6695 42.8893 32.7352V39.316C42.8893 39.4432 42.7529 39.5294 42.6413 39.472C39.9678 38.1049 36.3313 36.2493 33.6949 34.9028C33.6453 34.8782 33.5874 34.8782 33.542 34.9028C28.8683 37.288 22.959 40.3053 18.2564 42.7068C18.1986 42.7356 18.1655 42.793 18.1655 42.8587V49.3779C18.1655 49.4436 18.1986 49.501 18.2564 49.5298C22.9673 51.9355 28.86 54.9446 33.542 57.3339C33.5916 57.3585 33.6494 57.3585 33.699 57.3339C38.3727 54.9487 44.2819 51.9272 48.9845 49.5298C49.0424 49.501 49.0754 49.4436 49.0754 49.3779V42.7561M36.7074 48.8894L33.6949 50.4288C33.6453 50.4535 33.5874 50.4535 33.5378 50.4288C31.6866 49.4846 27.4592 47.3252 25.393 46.2702C25.269 46.2045 25.269 46.028 25.393 45.9664C27.4674 44.9072 31.67 42.7602 33.5378 41.8078C33.5874 41.7831 33.6412 41.7831 33.6907 41.8078C35.542 42.752 39.7694 44.9114 41.8355 45.9664C41.9595 46.0321 41.9595 46.2086 41.8355 46.2702L36.7074 48.8894Z" fill="#FFBC00"/>
<path d="M12.0745 25.1613C19.0458 21.602 26.575 17.7595 33.538 14.2002C33.5876 14.1756 33.6454 14.1756 33.695 14.2002C35.319 15.0295 38.5092 16.6593 40.1456 17.4926C40.1952 17.5173 40.253 17.5173 40.3026 17.4926C41.7905 16.7332 44.9476 15.1198 46.6088 14.2741C46.7328 14.2084 46.7328 14.0319 46.6088 13.9662C44.9352 13.1123 41.7326 11.4743 40.2985 10.7436C38.6621 9.90611 35.3686 8.22706 33.6909 7.36906C33.6413 7.34443 33.5834 7.34443 33.5338 7.36906C24.4922 11.9875 14.9382 16.8645 5.88839 21.4871C5.83054 21.5158 5.79335 21.5774 5.79335 21.639V50.7451C5.79335 50.8724 5.92972 50.9586 6.04542 50.897L11.8803 47.9166C11.9382 47.8879 11.9753 47.8263 11.9753 47.7647V25.3091C11.9753 25.2434 12.0125 25.1859 12.0704 25.1572L12.0745 25.1613Z" fill="#494949"/>
<path d="M61.184 29.6356L60.1262 30.1775L55.3491 32.616C55.2913 32.6447 55.2541 32.7063 55.2541 32.7679V52.7317L61.4361 56.0898V29.7875C61.4361 29.6602 61.2997 29.574 61.184 29.6356Z" fill="#FFBC00"/>
<path d="M61.184 22.6492L60.1262 23.1911L55.3491 25.6297C55.2913 25.6584 55.2541 25.72 55.2541 25.7816V30.3343C55.2541 30.4616 55.3905 30.5478 55.5062 30.4862L56.5641 29.9443L61.3411 27.5058C61.3989 27.477 61.4361 27.4155 61.4361 27.3539V22.8011C61.4361 22.6739 61.2997 22.5877 61.184 22.6492Z" fill="#FFBC00"/>
<path d="M55.2533 52.7314V52.7479C55.2533 52.8135 55.2161 52.871 55.1582 52.8998C48.2159 56.4426 40.7114 60.2769 33.7731 63.8198C33.7236 63.8444 33.6657 63.8444 33.6161 63.8198C28.5168 61.217 20.8265 57.2883 15.7974 54.7225C15.7478 54.6979 15.69 54.6979 15.6404 54.7225C14.0329 55.5435 10.9791 57.1035 9.26003 57.9821C9.13606 58.0478 9.13606 58.2243 9.26003 58.29C14.8263 61.1349 21.3926 64.4848 26.9341 67.3174C28.5912 68.1672 31.959 69.8832 33.6037 70.7248L33.6203 70.733C42.6868 66.1023 52.2697 61.2088 61.3444 56.574C61.4022 56.5452 61.4394 56.4837 61.4394 56.4221V56.0937C60.0055 55.4081 55.8277 53.1953 55.2574 52.7355L55.2533 52.7314Z" fill="#1F87A6"/>
<path d="M89.1183 39.8375C89.1183 39.8375 89.0935 39.7841 93.4242 47.8098H88.3704L85.0273 40.9295H83.6347V47.8098H79.0602V29.209H85.1595C89.5729 29.209 91.7134 31.2288 91.7134 34.9235C91.7134 36.9679 90.8291 38.9097 89.1183 39.8375ZM83.6347 33.1131V37.1239H84.9984C86.2546 37.1239 87.0315 36.3521 87.0315 35.0795C87.0315 33.8069 86.4447 33.1131 84.7835 33.1131H83.6347Z" fill="white"/>
<path d="M101.019 43.6388L99.6806 47.8098H95.0813L101.553 29.209H106.367L112.838 47.8098H108.239L106.9 43.6388H101.015H101.019ZM103.962 34.0162L102.197 39.9155H105.726L103.962 34.0162Z" fill="white"/>
<path d="M123.083 42.9738C123.083 46.7219 120.434 47.9699 117.413 47.9699C116.426 47.9699 115.864 47.9165 114.847 47.6784L115.38 43.6676C115.81 43.7456 116.182 43.7989 116.827 43.7989C118.004 43.7989 118.513 43.0559 118.513 42.124V29.209H123.087V42.9738H123.083Z" fill="white"/>
<path d="M151.649 45.2322C149.67 46.7471 147.397 48.1552 143.091 48.1552C137.793 48.1552 133.409 44.4358 133.409 38.4544C133.409 33.138 137.368 28.8604 143.198 28.8604C147.612 28.8604 149.86 30.9048 150.823 32.1035L147.934 35.0798C147.533 34.5502 145.926 33.06 143.413 33.06C140.07 33.06 138.145 35.3713 138.145 38.3764C138.145 41.8331 140.446 43.9555 143.413 43.9555C145.769 43.9555 147.103 43.1057 147.397 42.8142V41.168H144.161V37.3665H151.649V45.2322Z" fill="white"/>
<path d="M154.855 38.4829C154.855 33.0886 158.76 28.8643 164.669 28.8643C170.579 28.8643 174.484 33.0886 174.484 38.4829C174.484 43.8774 170.579 48.1551 164.669 48.1551C158.76 48.1551 154.855 43.9554 154.855 38.4829ZM159.615 38.4829C159.615 41.6195 161.702 43.9061 164.669 43.9061C167.636 43.9061 169.723 41.6195 169.723 38.4829C169.723 35.3465 167.665 33.1132 164.669 33.1132C161.673 33.1132 159.615 35.4245 159.615 38.4829Z" fill="white"/>
<path d="M177.27 38.4829C177.27 33.0886 181.175 28.8643 187.084 28.8643C192.993 28.8643 196.898 33.0886 196.898 38.4829C196.898 43.8774 192.993 48.1551 187.084 48.1551C181.175 48.1551 177.27 43.9554 177.27 38.4829ZM182.03 38.4829C182.03 41.6195 184.117 43.9061 187.084 43.9061C190.051 43.9061 192.138 41.6195 192.138 38.4829C192.138 35.3465 190.08 33.1132 187.084 33.1132C184.088 33.1132 182.03 35.4245 182.03 38.4829Z" fill="white"/>
<path d="M206.126 29.209C212.143 29.209 215.994 32.6902 215.994 38.5115C215.994 44.3326 212.143 47.8098 206.126 47.8098H200.617V29.209H206.126ZM205.192 33.1418V43.8769H206.126C209.2 43.8769 211.234 42.0706 211.234 38.5115C211.234 34.9522 209.2 33.1418 206.126 33.1418H205.192Z" fill="white"/>
<path d="M228.164 46.2949L224.044 35.6132V47.8098H219.656V29.209H225.594L230.247 40.9788L234.929 29.209H240.867V47.8098H236.478V35.6132L232.358 46.2949H228.16H228.164Z" fill="white"/>
<path d="M249.909 43.6388L248.57 47.8098H243.97L250.442 29.209H255.256L261.727 47.8098H257.128L255.789 43.6388H249.904H249.909ZM252.851 34.0162L251.086 39.9155H254.615L252.851 34.0162Z" fill="white"/>
<path d="M269.326 36.4096V47.8098H264.834V29.209H269.487L276.334 40.7407V29.209H280.826V47.8098H276.28L269.326 36.4096Z" fill="white"/>
</g>
<defs>
<clipPath id="clip0_4095_663">
<rect width="281" height="78" fill="white"/>
</clipPath>
</defs>
</svg>
